HIERARCHY
ROOT Hips
{
	OFFSET 0.000000 0.000000 0.000000
	CHANNELS 6 Xposition Yposition Zposition Zrotation Yrotation Xrotation 
	JOINT LHipJoint
	{
		OFFSET 0.000000 0.000000 0.000000
		CHANNELS 3 Zrotation Yrotation Xrotation
		JOINT LeftUpLeg
		{
			OFFSET 1.363060 -1.794630 0.839290
			CHANNELS 3 Zrotation Yrotation Xrotation
			JOINT LeftLeg
			{
				OFFSET 2.448110 -6.726130 0.000000
				CHANNELS 3 Zrotation Yrotation Xrotation
				JOINT LeftFoot
				{
					OFFSET 2.562200 -7.039590 0.000000
					CHANNELS 3 Zrotation Yrotation Xrotation
					JOINT LeftToeBase
					{
						OFFSET 0.157640 -0.433110 2.322550
						CHANNELS 3 Zrotation Yrotation Xrotation
						End Site
						{
							OFFSET 0.000000 0.000000 0.000000
						}
					}
				}
			}
		}
	}
	JOINT RHipJoint
	{
		OFFSET 0.000000 0.000000 0.000000
		CHANNELS 3 Zrotation Yrotation Xrotation
		JOINT RightUpLeg
		{
			OFFSET -1.305520 -1.794630 0.839290
			CHANNELS 3 Zrotation Yrotation Xrotation
			JOINT RightLeg
			{
				OFFSET -2.542530 -6.985550 0.000000
				CHANNELS 3 Zrotation Yrotation Xrotation
				JOINT RightFoot
				{
					OFFSET -2.568260 -7.056230 0.000000
					CHANNELS 3 Zrotation Yrotation Xrotation
					JOINT RightToeBase
					{
						OFFSET -0.164730 -0.452590 2.363150
						CHANNELS 3 Zrotation Yrotation Xrotation
						End Site
						{
							OFFSET 0.000000 0.000000 0.000000
						}
					}
				}
			}
		}
	}
	JOINT LowerBack
	{
		OFFSET 0.000000 0.000000 0.000000
		CHANNELS 3 Zrotation Yrotation Xrotation
		JOINT Spine
		{
			OFFSET 0.028270 2.035590 -0.193380
			CHANNELS 3 Zrotation Yrotation Xrotation
			JOINT Spine1
			{
				OFFSET 0.056720 2.048850 -0.042750
				CHANNELS 3 Zrotation Yrotation Xrotation
				JOINT Neck
				{
					OFFSET 0.000000 0.000000 0.000000
					CHANNELS 3 Zrotation Yrotation Xrotation
					JOINT Neck1
					{
						OFFSET -0.054170 1.746240 0.172020
						CHANNELS 3 Zrotation Yrotation Xrotation
						JOINT Head
						{
							OFFSET 0.104070 1.761360 -0.123970
							CHANNELS 3 Zrotation Yrotation Xrotation
							End Site
							{
								OFFSET 0.000000 0.000000 0.000000
							}
						}
					}
				}
				JOINT LeftShoulder
				{
					OFFSET 0.000000 0.000000 0.000000
					CHANNELS 3 Zrotation Yrotation Xrotation
					JOINT LeftArm
					{
						OFFSET 3.362410 1.200890 -0.311210
						CHANNELS 3 Zrotation Yrotation Xrotation
						JOINT LeftForeArm
						{
							OFFSET 4.983000 -0.000000 -0.000000
							CHANNELS 3 Zrotation Yrotation Xrotation
							JOINT LeftHand
							{
								OFFSET 3.483560 -0.000000 -0.000000
								CHANNELS 3 Zrotation Yrotation Xrotation
								JOINT LeftFingerBase
								{
									OFFSET 0.000000 0.000000 0.000000
									CHANNELS 3 Zrotation Yrotation Xrotation
									JOINT LeftHandIndex1
									{
										OFFSET 0.715260 -0.000000 -0.000000
										CHANNELS 3 Zrotation Yrotation Xrotation
										End Site
										{
											OFFSET 0.000000 0.000000 0.000000
										}
									}
								}
								JOINT LThumb
								{
									OFFSET 0.000000 0.000000 0.000000
									CHANNELS 3 Zrotation Yrotation Xrotation
									End Site
									{
										OFFSET 0.000000 0.000000 0.000000
									}
								}
							}
						}
					}
				}
				JOINT RightShoulder
				{
					OFFSET 0.000000 0.000000 0.000000
					CHANNELS 3 Zrotation Yrotation Xrotation
					JOINT RightArm
					{
						OFFSET -3.136600 1.374050 -0.404650
						CHANNELS 3 Zrotation Yrotation Xrotation
						JOINT RightForeArm
						{
							OFFSET -5.241900 -0.000000 -0.000000
							CHANNELS 3 Zrotation Yrotation Xrotation
							JOINT RightHand
							{
								OFFSET -3.444170 -0.000000 -0.000000
								CHANNELS 3 Zrotation Yrotation Xrotation
								JOINT RightFingerBase
								{
									OFFSET 0.000000 0.000000 0.000000
									CHANNELS 3 Zrotation Yrotation Xrotation
									JOINT RightHandIndex1
									{
										OFFSET -0.622530 -0.000000 -0.000000
										CHANNELS 3 Zrotation Yrotation Xrotation
										End Site
										{
											OFFSET 0.000000 0.000000 0.000000
										}
									}
								}
								JOINT RThumb
								{
									OFFSET 0.000000 0.000000 0.000000
									CHANNELS 3 Zrotation Yrotation Xrotation
									End Site
									{
										OFFSET 0.000000 0.000000 0.000000
									}
								}
							}
						}
					}
				}
			}
		}
	}
}
MOTION
Frames: 8
Frame Time: 0.008333
11.872766 17.838176 -38.510617 0.275343 -18.285669 7.141529 -4.188444 -1.832214 0.574533 -15.099614 -7.833870 -13.433883 2.630743 12.209053 34.443228 -0.710107 6.376423 -13.092106 0.079200 1.815600 4.996200 3.476686 1.979090 -0.306184 18.834390 7.436676 -15.345701 -4.084908 -13.204389 38.203670 -0.124820 -6.104634 -20.205565 -0.957800 -6.231800 17.458500 -4.078558 -1.560205 2.112628 0.686490 -2.649723 -3.335428 9.562992 -0.656546 -6.365388 -16.303151 -11.060799 -3.323519 7.553792 -13.295333 6.263666 5.829000 -7.043400 7.177500 -1.355350 3.422455 -0.649162 -95.597135 3.748878 20.677701 12.716411 -21.495741 -2.080239 0.716274 0.069351 10.350955 4.642094 32.977929 2.142600 -7.125000 0.000000 0.000000 -32.417300 59.812800 -12.508100 0.465396 -2.509599 -1.490372 85.028171 -5.386874 10.238492 -14.712840 22.719205 -3.335294 0.484462 0.493984 -11.916045 -12.833849 17.901568 -4.093800 7.125000 0.000000 0.000000 9.584100 -12.240400 7.441600 
11.870664 17.840979 -38.513620 0.310865 -18.180014 7.188702 -4.184319 -1.824650 0.564072 -15.119481 -7.942162 -13.448959 2.609028 12.201715 34.393545 -1.170352 7.940161 -12.805189 0.096700 -2.005800 -5.521600 3.477643 1.975527 -0.303038 18.798724 7.476509 -15.414432 -4.097657 -13.217279 38.260785 -0.149660 -6.055495 -20.355873 -1.015200 -6.410400 17.979900 -4.128830 -1.575397 2.108130 0.683895 -2.672603 -3.346265 9.587835 -0.664302 -6.381422 -16.307844 -11.071088 -3.379947 7.653800 -13.303957 6.266354 5.862000 -7.039800 7.202100 -1.357553 3.424928 -0.652036 -95.597648 3.750094 20.642211 12.723002 -21.507780 -2.085848 0.716099 0.065832 10.460446 4.678455 32.813199 2.152800 -7.125000 0.000000 0.000000 -32.224900 59.685100 -12.324300 0.469615 -2.503977 -1.490197 85.071920 -5.345847 10.057436 -14.669403 22.648748 -3.310067 0.488910 0.485084 -11.708622 -12.891032 18.000269 -4.136200 7.125000 0.000000 0.000000 9.547000 -12.128300 7.434500 
11.868161 17.839878 -38.520226 0.260977 -18.105779 7.229451 -4.182232 -1.828123 0.563481 -15.018886 -7.929967 -13.534677 2.632125 12.222225 34.475645 -0.975399 7.275343 -12.914924 0.017300 -0.850000 -2.336200 3.478514 1.977265 -0.303862 18.886378 7.488348 -15.426406 -4.082714 -13.199108 38.199333 -0.125670 -6.186579 -20.378565 -1.009200 -6.392000 17.926000 -4.101150 -1.595448 2.146675 0.692452 -2.698735 -3.346997 9.604870 -0.678784 -6.388925 -16.335513 -11.085454 -3.535707 7.849287 -13.291896 6.171798 5.932700 -7.013600 7.222300 -1.359308 3.430487 -0.657120 -95.560195 3.704807 20.699432 12.727823 -21.513612 -2.086213 0.717424 0.065090 10.347083 4.911168 32.849720 2.280300 -7.125000 0.000000 0.000000 -32.035200 59.772300 -12.310000 0.473632 -2.489948 -1.488478 85.118379 -5.280134 9.975451 -14.650146 22.611723 -3.298050 0.489521 0.484511 -11.630007 -12.941264 17.966637 -4.144500 7.125000 0.000000 0.000000 9.513500 -12.157800 7.401800 
11.866360 17.840578 -38.527934 0.185136 -17.999763 7.270484 -4.180329 -1.833771 0.561697 -14.887379 -7.917843 -13.617174 2.658116 12.235204 34.538410 -0.714968 6.339421 -12.848770 0.026500 1.050800 2.888500 3.477960 1.978323 -0.304746 18.996270 7.475832 -15.442074 -4.071325 -13.183156 38.144250 -0.130399 -6.151430 -20.355208 -1.095400 -6.650800 18.684900 -4.027083 -1.618595 2.196393 0.704826 -2.728342 -3.338458 9.599818 -0.696566 -6.375111 -16.320384 -11.089693 -3.716035 7.788838 -13.302795 6.466826 5.896300 -7.028000 7.368100 -1.361905 3.416721 -0.662821 -95.544950 3.683724 20.727248 12.787750 -21.599372 -2.093993 0.719282 0.078371 10.191302 4.691093 33.662594 2.207800 -7.125000 0.000000 0.000000 -33.040800 60.388700 -13.241600 0.476546 -2.497299 -1.493697 85.145210 -5.205916 10.048237 -14.650615 22.602024 -3.294584 0.491419 0.487818 -11.660630 -13.047810 17.929869 -4.169900 7.125000 0.000000 0.000000 9.441100 -12.187700 7.337900 
11.866160 17.842980 -38.529135 0.091156 -18.010793 7.338458 -4.170363 -1.833147 0.552140 -14.793174 -7.918737 -13.662681 2.668646 12.248323 34.579412 -0.846847 6.746743 -12.568030 0.000900 0.195000 0.535600 3.478943 1.976886 -0.307062 19.078829 7.518239 -15.441341 -4.058346 -13.165576 38.080866 -0.146945 -6.059854 -20.337881 -1.209800 -6.977700 19.649400 -3.883402 -1.571741 2.144549 0.686239 -2.654626 -3.311337 9.462994 -0.678739 -6.272417 -16.125337 -11.166328 -3.978210 7.661737 -13.402948 6.558970 5.787800 -7.066700 7.449100 -1.366235 3.404092 -0.667460 -95.433993 3.555201 20.871197 12.764864 -21.552456 -2.071443 0.721218 0.088925 10.203845 4.404801 34.308479 2.083300 -7.125000 0.000000 0.000000 -33.975600 60.842800 -14.039700 0.480933 -2.511370 -1.496705 85.282624 -5.102571 9.920653 -14.641239 22.582122 -3.286240 0.494934 0.487048 -11.625677 -13.140548 17.964402 -4.208400 7.125000 0.000000 0.000000 9.378400 -12.143400 7.296500 
11.866760 17.841379 -38.523429 0.025883 -18.194991 7.315084 -4.164833 -1.828167 0.549331 -14.794362 -7.899224 -13.570657 2.663273 12.257857 34.593848 -1.068927 7.546768 -12.632262 0.041600 -1.316100 -3.618900 3.480193 1.975608 -0.311258 19.118858 7.582131 -15.337179 -4.047459 -13.157659 38.037703 -0.148577 -6.053315 -20.342800 -1.180000 -6.894200 19.402400 -3.748969 -1.478198 2.051352 0.658767 -2.516348 -3.274693 9.315698 -0.631752 -6.148066 -16.068301 -11.203920 -4.069161 7.633470 -13.454203 6.603257 5.761300 -7.088000 7.485900 -1.372112 3.405706 -0.665547 -95.321647 3.481680 21.015578 12.733908 -21.499075 -2.055914 0.722189 0.091424 10.351969 4.172287 34.440115 1.958800 -7.125000 0.000000 0.000000 -34.337700 60.889300 -14.248700 0.477020 -2.523990 -1.493232 85.403803 -5.087661 9.778307 -14.634574 22.575947 -3.281298 0.498569 0.486744 -11.573423 -13.220885 18.000519 -4.243200 7.125000 0.000000 0.000000 9.324100 -12.099200 7.261700 
11.865959 17.839477 -38.521528 0.068973 -18.210766 7.261295 -4.177179 -1.832160 0.561968 -14.841611 -7.949139 -13.523173 2.670799 12.256544 34.609123 -0.687377 6.296893 -13.094634 0.079600 1.820200 5.009000 3.483064 1.977412 -0.306534 19.072342 7.566748 -15.284247 -4.042093 -13.152448 38.015865 -0.167949 -5.988919 -20.408903 -1.162200 -6.844000 19.254000 -3.770672 -1.478351 2.111733 0.673143 -2.523247 -3.316289 9.382444 -0.618264 -6.303440 -16.306229 -11.148347 -3.953820 7.691382 -13.377303 6.749721 5.842700 -7.072300 7.536000 -1.374028 3.410481 -0.670331 -95.375879 3.702854 20.982070 12.789460 -21.579876 -2.074185 0.719045 0.097757 10.436997 3.778780 34.700498 1.750500 -7.125000 0.000000 0.000000 -34.988600 60.999100 -14.650100 0.467737 -2.521028 -1.499618 85.311384 -5.310096 9.856897 -14.651531 22.606067 -3.289979 0.498955 0.490143 -11.599495 -13.261829 17.975307 -4.250000 7.125000 0.000000 0.000000 9.295800 -12.123900 7.234300 
11.863057 17.840378 -38.526332 0.112756 -18.098853 7.279069 -4.174770 -1.825182 0.556716 -14.849802 -7.977484 -13.606282 2.652861 12.252545 34.572747 -1.137856 7.822179 -12.791119 0.092100 -1.957300 -5.387600 3.481491 1.972958 -0.296433 19.059517 7.566626 -15.321960 -4.040718 -13.147111 38.007133 -0.171900 -5.986861 -20.444137 -1.191400 -6.926400 19.497600 -3.865846 -1.502520 2.254336 0.702213 -2.569595 -3.377541 9.530789 -0.611808 -6.539041 -16.460474 -11.124683 -3.883348 7.709926 -13.340588 6.833328 5.880100 -7.069300 7.570100 -1.370684 3.405810 -0.678158 -95.485391 3.896735 20.858787 12.845647 -21.662461 -2.093812 0.716032 0.101521 10.547871 3.547025 34.903320 1.629300 -7.125000 0.000000 0.000000 -35.424900 61.102500 -14.947600 0.467477 -2.511870 -1.510203 85.221001 -5.486027 9.910262 -14.681902 22.644018 -3.302677 0.497238 0.497355 -11.656786 -13.327329 17.874975 -4.245700 7.125000 0.000000 0.000000 9.251000 -12.226100 7.178500 
